<svg width="25" height="24" viewBox="0 0 25 24" fill="none" xmlns="http://www.w3.org/2000/svg">
<path d="M13.4577 2.25984L20.2389 5.76984C21.0306 6.17984 21.0306 7.34984 20.2389 7.75984L13.4577 11.2698C12.8535 11.5798 12.1452 11.5798 11.541 11.2698L4.75977 7.75984C3.9681 7.34984 3.9681 6.17984 4.75977 5.76984L11.541 2.25984C12.1452 1.94984 12.8535 1.94984 13.4577 2.25984Z" stroke="#E7EEF1" stroke-width="1.5" stroke-linecap="round" stroke-linejoin="round"/>
<path d="M3.76107 10.1302L10.0632 13.1602C10.8444 13.5402 11.3444 14.3102 11.3444 15.1502V20.8702C11.3444 21.7002 10.4382 22.2302 9.66732 21.8602L3.36523 18.8302C2.58398 18.4502 2.08398 17.6802 2.08398 16.8402V11.1202C2.08398 10.2902 2.99023 9.76017 3.76107 10.1302Z" stroke="#E7EEF1" stroke-width="1.5" stroke-linecap="round" stroke-linejoin="round"/>
<path d="M21.2396 10.1302L14.9375 13.1602C14.1563 13.5402 13.6562 14.3102 13.6562 15.1502V20.8702C13.6562 21.7002 14.5625 22.2302 15.3333 21.8602L21.6354 18.8302C22.4167 18.4502 22.9167 17.6802 22.9167 16.8402V11.1202C22.9167 10.2902 22.0104 9.76017 21.2396 10.1302Z" stroke="#E7EEF1" stroke-width="1.5" stroke-linecap="round" stroke-linejoin="round"/>
</svg>
