<svg width="20" height="20" viewBox="0 0 20 20" fill="none" xmlns="http://www.w3.org/2000/svg">
<path d="M10.0003 15.1667C11.8413 15.1667 13.3337 13.6743 13.3337 11.8333C13.3337 9.99238 11.8413 8.5 10.0003 8.5C8.15938 8.5 6.66699 9.99238 6.66699 11.8333C6.66699 13.6743 8.15938 15.1667 10.0003 15.1667Z" stroke="#2F66F6" stroke-width="1.3" stroke-miterlimit="10" stroke-linecap="round" stroke-linejoin="round"/>
<path d="M8.69922 11.9163L9.24089 12.4579C9.39922 12.6163 9.65755 12.6163 9.81589 12.4663L11.2992 11.0996" stroke="#2F66F6" stroke-width="1.3" stroke-linecap="round" stroke-linejoin="round"/>
<path d="M6.66636 18.3333H13.333C16.683 18.3333 17.283 16.9917 17.458 15.3583L18.083 8.69167C18.308 6.65833 17.7247 5 14.1664 5H5.83303C2.27469 5 1.69136 6.65833 1.91636 8.69167L2.54136 15.3583C2.71636 16.9917 3.31636 18.3333 6.66636 18.3333Z" stroke="#2F66F6" stroke-width="1.3" stroke-miterlimit="10" stroke-linecap="round" stroke-linejoin="round"/>
<path d="M6.66699 5.00033V4.33366C6.66699 2.85866 6.66699 1.66699 9.33366 1.66699H10.667C13.3337 1.66699 13.3337 2.85866 13.3337 4.33366V5.00033" stroke="#2F66F6" stroke-width="1.3" stroke-miterlimit="10" stroke-linecap="round" stroke-linejoin="round"/>
<path d="M18.0418 9.16699C16.6001 10.217 15.0001 10.9503 13.3418 11.367" stroke="#2F66F6" stroke-width="1.3" stroke-miterlimit="10" stroke-linecap="round" stroke-linejoin="round"/>
<path d="M2.18262 9.3916C3.57428 10.3416 5.09095 11.0166 6.66595 11.3999" stroke="#2F66F6" stroke-width="1.3" stroke-miterlimit="10" stroke-linecap="round" stroke-linejoin="round"/>
</svg>
