<svg width="25" height="24" viewBox="0 0 25 24" fill="none" xmlns="http://www.w3.org/2000/svg">
<path d="M4.18815 5.97C2.86523 7.65 2.08398 9.74 2.08398 12C2.08398 17.52 6.75065 22 12.5007 22C18.2507 22 22.9173 17.52 22.9173 12C22.9173 6.48 18.2507 2 12.5007 2" stroke="#E7EEF1" stroke-width="1.5" stroke-linecap="round" stroke-linejoin="round"/>
<path d="M5.20898 12C5.20898 15.87 8.4694 19 12.5007 19C16.5319 19 19.7923 15.87 19.7923 12C19.7923 8.13 16.5319 5 12.5007 5" stroke="#E7EEF1" stroke-width="1.5" stroke-linecap="round" stroke-linejoin="round"/>
<path d="M12.5 16C14.8021 16 16.6667 14.21 16.6667 12C16.6667 9.79 14.8021 8 12.5 8" stroke="#E7EEF1" stroke-width="1.5" stroke-linecap="round" stroke-linejoin="round"/>
</svg>
